<svg width="270" height="42" viewBox="0 0 270 42" fill="none" xmlns="http://www.w3.org/2000/svg">
<path d="M1.5 3.19322H12.2315C24.2792 3.29446 30.303 12.1024 30.303 20.9103C30.303 29.7182 24.2792 38.5262 12.2315 38.6274H1.5V3.19322ZM17 13H9V29.5H12.2315C27.0127 29.5 31.8318 13 17 13Z" fill="white"/>
<path d="M31.3037 38.6273L47.9072 2.68697H48.9702L65.5737 38.6273H58.335L56.3608 34.4259C54.9941 35.0839 53.8298 35.2864 52.7668 35.2864C49.5777 35.2864 47.2492 33.3122 44.1107 33.3122C43.0477 33.3122 41.934 33.5147 40.6179 34.1728L38.5424 38.6273H31.3037ZM48.3942 12.6239L38.5737 31.1239C42.9271 30.6177 53.8278 31.035 57.5737 30.1239L48.3942 12.6239Z" fill="white"/>
<path d="M69.9544 33.7958L75.4243 29.6956C77.5503 32.5303 78.4243 36 87.4243 35.1626C89.7528 35.1626 90.405 32.4291 90.405 29.4425C90.405 23.3174 70.8655 23.8742 70.8655 12.1809C70.8655 5.04345 76.8388 1.5 83.3688 1.5C88.0259 1.5 92.6829 3.4742 96.0239 6.7139L91.468 11.8266C89.1901 9.64989 85 6.7139 78.4243 6C75.7414 6 77.7499 9.19431 77.7499 12.3834C77.7499 17.8504 97.2388 17.0911 97.2388 29.6956C97.2388 36.7318 90.3038 40.1234 84.0775 40.1234C78.7117 40.1234 73.2447 38.1998 69.9544 33.7958Z" fill="white"/>
<path d="M121.313 39.5579H115.238V4.12366H138.169V9.79314L118.857 7.05444L121.313 20.9296H134.525V26.5991H121.313V39.5579Z" fill="white"/>
<path d="M144.355 38.6272V3.19287H150.429V38.6272H144.355Z" fill="white"/>
<path d="M157.147 38.6272V3.19287H163.221L160.857 35.1237L180.078 32.9577V38.6272H157.147Z" fill="white"/>
<path d="M189.357 6.12366L175.417 8.86236V3.19287H204.574V8.86236L191.857 6.12366L196 38.6272H186.907L189.357 6.12366Z" fill="white"/>
<path d="M210.857 39.1237V3.68937H233.788V9.35886H216.932L212.949 21.6202L230.144 18.5718V24.2413L212.949 25.6237L216.932 33.4542H233.788V39.1237H210.857Z" fill="white"/>
<path d="M240.877 38.6272V3.19287H252.064C265.782 3.19287 267.705 18.8346 257.986 23.2892C261.681 27.2376 262.34 32.8564 267.857 32.9071L267.705 38.779C255.101 38.5259 257.834 24.6559 248.419 24.5041H246.951V38.6272H240.877ZM252.064 8.91298H246.951V18.784H252.064C259.758 18.784 259.707 8.91298 252.064 8.91298Z" fill="white"/>
<path fill-rule="evenodd" clip-rule="evenodd" d="M0 1.69322H12.2441C18.6588 1.74713 23.5842 4.133 26.8954 7.77817C30.1851 11.3996 31.803 16.1756 31.803 20.9103C31.803 25.645 30.1851 30.421 26.8954 34.0424C23.5842 37.6876 18.6588 40.0734 12.2441 40.1273L12.2315 40.1274L0 40.1274V1.69322ZM28.9584 40.1273L46.9478 1.18697H49.9296L67.919 40.1273H57.3825L55.6039 36.3422C54.5881 36.6672 53.6514 36.7864 52.7668 36.7864C50.9034 36.7864 49.3098 36.2134 47.9759 35.7337L47.9124 35.7109C46.5069 35.2057 45.3791 34.8122 44.1107 34.8122C43.39 34.8122 42.6384 34.9246 41.7462 35.3028L39.4984 40.1273H28.9584ZM40.6179 34.1728C41.934 33.5147 43.0477 33.3122 44.1107 33.3122C45.6736 33.3122 47.0357 33.8018 48.4033 34.2934C49.7818 34.7889 51.1659 35.2864 52.7668 35.2864C53.7827 35.2864 54.891 35.1015 56.1802 34.5108C56.24 34.4833 56.3002 34.455 56.3608 34.4259L58.335 38.6273H65.5737L48.9702 2.68697H47.9072L31.3037 38.6273H38.5424L40.6179 34.1728ZM67.8564 33.4939L75.7245 27.5959L76.6243 28.7956C76.9164 29.185 77.1825 29.5795 77.4262 29.9421L77.4634 29.9975C77.6987 30.3478 77.9132 30.6671 78.14 30.9761C78.6092 31.6156 79.0852 32.1458 79.7019 32.5739C80.901 33.4063 82.9579 34.0717 87.2853 33.669L87.3546 33.6626H87.4243C87.6894 33.6626 87.8383 33.593 87.9501 33.5058C88.0835 33.4018 88.2501 33.2016 88.4097 32.8302C88.7423 32.0563 88.905 30.8717 88.905 29.4425C88.905 28.8394 88.4483 28.1051 86.6378 27.1248C85.467 26.4909 84.0707 25.9263 82.5047 25.2931C81.7248 24.9778 80.9028 24.6454 80.0457 24.279C77.579 23.2246 74.9339 21.925 72.9022 20.0529C70.8178 18.1324 69.3655 15.5935 69.3655 12.1809C69.3655 8.1406 71.0798 5.03361 73.7534 2.97533C76.3829 0.950918 79.8538 0 83.3688 0C88.4339 0 93.4607 2.13893 97.0681 5.63705L98.1005 6.63816L91.5547 13.984L90.4318 12.911C88.3676 10.9387 84.5559 8.24362 78.537 7.52259C78.5427 7.59571 78.552 7.68378 78.5667 7.78884C78.6156 8.13986 78.6916 8.50148 78.7833 8.93785C78.8346 9.1822 78.8909 9.44999 78.9501 9.75249C79.102 10.5289 79.2499 11.4395 79.2499 12.3834C79.2499 12.5614 79.3099 12.7849 79.6421 13.1134C80.0026 13.47 80.5921 13.8528 81.4547 14.2751C82.3044 14.6912 83.3157 15.0972 84.4599 15.5421C84.6571 15.6187 84.858 15.6965 85.0621 15.7755C86.0231 16.1473 87.0532 16.5459 88.0807 16.9823C92.9678 19.0577 98.7388 22.3681 98.7388 29.6956C98.7388 33.7843 96.6943 36.8232 93.8429 38.784C91.035 40.7149 87.4334 41.6234 84.0775 41.6234C78.3957 41.6234 72.4086 39.5869 68.7527 34.6936L67.8564 33.4939ZM78.4243 6C84.1194 6.6183 88.0251 8.90341 90.4489 10.9184C90.8237 11.23 91.163 11.5351 91.468 11.8266L96.0239 6.7139C92.6829 3.4742 88.0259 1.5 83.3688 1.5C76.8388 1.5 70.8655 5.04345 70.8655 12.1809C70.8655 18.9645 77.4416 21.6254 82.9638 23.8598C86.9604 25.477 90.405 26.8707 90.405 29.4425C90.405 32.4291 89.7528 35.1626 87.4243 35.1626C79.7026 35.8811 77.9625 33.4291 76.2813 30.9278C76.262 30.8991 76.2428 30.8704 76.2235 30.8417C75.9658 30.458 75.7078 30.0739 75.4283 29.7009C75.4269 29.6991 75.4256 29.6973 75.4243 29.6956L69.9548 33.7955C69.9636 33.8073 69.972 33.8194 69.9809 33.8312C70.2759 34.2235 70.5884 34.5961 70.9165 34.9493C74.2502 38.5376 79.2056 40.1234 84.0775 40.1234C90.3038 40.1234 97.2388 36.7318 97.2388 29.6956C97.2388 22.0961 90.1543 19.3545 84.5281 17.1772C80.8227 15.7433 77.7499 14.5542 77.7499 12.3834C77.7499 11.3216 77.5273 10.2593 77.3292 9.3144C76.9325 7.42136 76.6346 6 78.4243 6ZM122.813 41.0579H113.738V2.62366H139.669V11.5209L120.695 8.83004L122.571 19.4296H136.025V28.0991H122.813V41.0579ZM118.857 7.05444L138.169 9.79314V4.12366H115.238V39.5579H121.313V26.5991H134.525V20.9296H121.313L118.857 7.05444ZM142.855 40.1272V1.69287H151.929V40.1272H142.855ZM155.647 40.1272V1.69287H164.836L162.487 33.4305L181.578 31.2791V40.1272H155.647ZM160.857 35.1237L163.221 3.19287H157.147V38.6272H180.078V32.9577L160.857 35.1237ZM191.857 6.12366L196 38.6272H186.907L189.357 6.12366L175.417 8.86236V3.19287H204.574V8.86236L191.857 6.12366ZM187.714 7.97526L173.917 10.6857V1.69287H206.074V10.7198L193.613 8.03621L197.703 40.1272H185.29L187.714 7.97526ZM209.357 40.6237V2.18937H235.288V10.8589H218.022L215.148 19.707L231.644 16.7824V25.6255L215.301 26.9394L217.852 31.9542H235.288V40.6237H209.357ZM216.932 33.4542L212.949 25.6237L230.144 24.2413V18.5718L212.949 21.6202L216.932 9.35886H233.788V3.68937H210.857V39.1237H233.788V33.4542H216.932ZM239.377 40.1272V1.69287H252.064C259.596 1.69287 264.141 6.06361 265.279 11.2489C266.276 15.7879 264.615 20.8694 260.291 23.7229C260.774 24.3741 261.199 25.0316 261.588 25.6634C261.828 26.0513 262.047 26.4181 262.257 26.7686C262.674 27.4666 263.053 28.1 263.472 28.707C264.081 29.5876 264.668 30.2439 265.338 30.6892C265.98 31.1165 266.769 31.397 267.871 31.4071L269.396 31.4211L269.166 40.3087L267.675 40.2787C264.216 40.2093 261.698 39.1925 259.758 37.6318C257.865 36.1086 256.615 34.1358 255.573 32.364C255.414 32.0929 255.26 31.8285 255.11 31.5709C254.235 30.0651 253.496 28.7931 252.547 27.7984C251.537 26.7396 250.326 26.0484 248.451 26.005V40.1272H239.377ZM248.419 24.5041C248.43 24.5042 248.44 24.5044 248.451 24.5046C252.795 24.5893 254.545 27.6049 256.423 30.8428C258.43 34.3024 260.584 38.0156 266.207 38.6784C266.622 38.7273 267.056 38.7596 267.509 38.7739C267.574 38.776 267.64 38.7777 267.705 38.779L267.857 32.9071C267.767 32.9062 267.679 32.9039 267.591 32.9002C264.087 32.7498 262.604 30.2711 260.937 27.4852C260.342 26.4907 259.723 25.457 258.981 24.4761C258.673 24.0692 258.344 23.6714 257.986 23.2892C258.467 23.069 258.918 22.8215 259.342 22.55C267.486 17.3267 265.104 3.19287 252.064 3.19287H240.877V38.6272H246.951V24.5041H248.419ZM9 13H17C31.8318 13 27.0127 29.5 12.2315 29.5H9V13ZM10.5 28H12.2315C19.0885 28 23.3027 24.196 24.2802 20.8315C24.7611 19.1762 24.472 17.68 23.4796 16.5858C22.4592 15.4608 20.4572 14.5 17 14.5H10.5V28ZM38.5737 31.1239C39.0829 31.0647 39.6817 31.0181 40.3481 30.9805C42.0547 30.8844 44.2049 30.8475 46.4306 30.8093C49.912 30.7495 53.5779 30.6866 56.0189 30.3889C56.6179 30.3158 57.1431 30.2286 57.5737 30.1239L48.3942 12.6239L38.5737 31.1239ZM41.1663 29.4391C42.7481 29.3717 44.5836 29.3404 46.4341 29.3088C47.0481 29.2984 47.6637 29.2879 48.2723 29.276C50.941 29.224 53.4388 29.1455 55.2711 28.9633L48.3863 15.838L41.1663 29.4391ZM246.951 8.91298H252.064C259.707 8.91298 259.758 18.784 252.064 18.784H246.951V8.91298ZM248.451 17.284H252.064C253.655 17.284 254.702 16.7811 255.342 16.1629C255.993 15.5346 256.318 14.6981 256.315 13.8523C256.313 13.0062 255.983 12.1662 255.329 11.5349C254.685 10.9141 253.639 10.413 252.064 10.413H248.451V17.284ZM12.2315 3.19322C24.2792 3.29446 30.303 12.1024 30.303 20.9103C30.303 29.7182 24.2792 38.5261 12.2315 38.6274H1.5V3.19322H12.2315ZM144.355 38.6272H150.429V3.19287H144.355V38.6272Z" fill="white"/>
</svg>
